<svg width="253" height="94" viewBox="0 0 253 94" fill="none" xmlns="http://www.w3.org/2000/svg">
<g filter="url(#filter0_d)">
<path d="M51.3383 85.171C48.7978 85.171 46.2855 84.4371 43.8015 82.9692C41.3738 81.5578 38.2688 79.356 34.4862 76.3639C31.6634 74.1056 29.2358 72.2708 27.2034 70.8594C25.2274 69.5045 23.0539 68.3471 20.6827 67.3874C18.368 66.4276 15.9969 65.9477 13.5693 65.9477C12.7224 65.9477 12.0732 65.976 11.6216 66.0324L24.2395 7.34644C20.4569 8.87076 17.5212 11.2137 15.4323 14.3752C13.3999 17.4803 12.3837 21.2911 12.3837 25.8075C12.3837 27.8964 12.5813 29.3643 12.9765 30.2111C13.3717 31.0015 13.5693 31.4531 13.5693 31.5661C10.5207 31.5661 8.2342 30.945 6.70989 29.703C5.24203 28.4045 4.5081 26.2874 4.5081 23.3517C4.5081 19.7385 5.97596 16.2383 8.91167 12.8509C11.9038 9.40709 15.7146 6.64074 20.344 4.55187C24.9734 2.40655 29.6028 1.33389 34.2322 1.33389C35.0226 1.33389 36.1517 1.39034 37.6195 1.50325L24.5782 62.3063C26.159 62.7015 27.768 63.2661 29.4052 64C31.0989 64.7904 33.1313 65.8348 35.5024 67.1333C39.1721 69.1093 42.3054 70.6053 44.9023 71.6216C47.4993 72.6942 50.2092 73.2305 53.032 73.2305C55.5725 73.2305 57.9437 72.7789 60.1455 71.8756C59.6938 75.9969 58.6776 79.2431 57.0968 81.6143C55.5725 83.9854 53.653 85.171 51.3383 85.171ZM50.2295 17.0851C48.3664 17.0851 46.7857 16.4359 45.4872 15.1374C44.1887 13.8389 43.5395 12.2581 43.5395 10.3951C43.5395 8.53202 44.1887 6.95125 45.4872 5.65277C46.7857 4.29782 48.3664 3.62035 50.2295 3.62035C52.0925 3.62035 53.6733 4.29782 54.9718 5.65277C56.3267 6.95125 57.0042 8.53202 57.0042 10.3951C57.0042 12.2581 56.3267 13.8389 54.9718 15.1374C53.6733 16.4359 52.0925 17.0851 50.2295 17.0851ZM44.471 64.5081C41.7611 64.5081 39.5593 63.6613 37.8656 61.9676C36.2284 60.2739 35.4098 57.7334 35.4098 54.346C35.4098 52.9346 35.6356 51.0998 36.0873 48.8416L41.8458 21.658H54.0403L47.943 50.4506C47.7172 51.2974 47.6043 52.2007 47.6043 53.1605C47.6043 54.2896 47.8583 55.1082 48.3664 55.6163C48.931 56.0679 49.8343 56.2938 51.0763 56.2938C52.7136 56.2938 54.2379 55.6163 55.6493 54.2613C57.0607 52.8499 58.0769 51.0434 58.6979 48.8416H62.2546C60.1657 54.9388 57.4841 59.0883 54.2096 61.2901C50.9352 63.4354 47.689 64.5081 44.471 64.5081ZM68.3181 64.5081C65.6082 64.5081 63.3218 64 61.4587 62.9838C59.5957 61.9111 58.2125 60.5562 57.3092 58.919C56.4059 57.2253 55.9543 55.4751 55.9543 53.6686C55.9543 51.8055 56.4059 50.1965 57.3092 48.8416C58.156 47.4302 59.2005 46.414 60.4425 45.793C62.6443 41.841 64.5638 37.8609 66.201 33.8525C67.8382 29.7877 69.3908 25.4123 70.8586 20.7265L83.3919 19.0328C83.6741 26.2592 84.154 34.0783 84.8315 42.4903C85.1138 45.8776 85.2549 48.3335 85.2549 49.8578C85.2549 51.1563 85.142 52.2289 84.9162 53.0758C87.5696 51.5515 89.602 50.1401 91.0134 48.8416H94.5701C90.957 53.0193 86.6381 56.5478 81.6135 59.4271C79.9763 61.1772 77.9439 62.4757 75.5162 63.3225C73.1451 64.1129 70.7457 64.5081 68.3181 64.5081ZM65.6082 57.8181C67.6971 57.8181 69.4472 57.1971 70.8586 55.955C72.27 54.713 72.9757 52.7088 72.9757 49.9425C72.9757 48.2488 72.8064 45.8776 72.4676 42.829C71.9031 36.393 71.5361 32.0742 71.3667 29.8724C70.0118 34.3324 67.7253 39.6675 64.5073 45.8776C65.8058 46.5551 66.4551 47.5431 66.4551 48.8416C66.4551 49.9142 66.0881 50.874 65.3542 51.7208C64.6767 52.5677 63.8016 52.9911 62.729 52.9911C61.5434 52.9911 60.7812 52.6241 60.4425 51.8902C60.4425 53.9226 60.8377 55.4187 61.6281 56.3784C62.4749 57.3382 63.8016 57.8181 65.6082 57.8181ZM98.9598 64.5081C96.0805 64.5081 93.9352 63.633 92.5238 61.8829C91.1689 60.1328 90.4914 57.8181 90.4914 54.9388C90.4914 53.471 90.6608 51.9749 90.9995 50.4506L96.4193 25.0454H93.6247L94.3022 21.658H97.0968L99.6373 9.97165L112.17 8.27797C111.662 10.4233 111.38 11.6936 111.324 12.0887C110.928 13.6695 110.251 16.8593 109.291 21.658H114.372L113.695 25.0454H108.614L103.194 50.4506C102.912 51.6926 102.771 52.6806 102.771 53.4145C102.771 55.4469 103.759 56.4631 105.735 56.4631C106.751 56.4631 107.485 56.3784 107.936 56.2091C106.807 59.4835 105.48 61.6853 103.956 62.8144C102.432 63.9435 100.766 64.5081 98.9598 64.5081ZM132.864 73.654C130.776 73.654 128.941 73.4846 127.36 73.1459C125.779 72.8071 124.396 71.9885 123.211 70.69C122.081 69.3915 121.517 67.3874 121.517 64.6775C121.517 60.8949 122.646 55.8139 124.904 49.4344C127.219 43.0548 130.239 36.6471 133.965 30.2111C131.143 30.3805 128.913 30.8039 127.275 31.4814C125.638 32.1588 124.565 33.2033 124.057 34.6147C124.283 34.6147 124.509 34.897 124.735 35.4615C125.017 36.0261 125.158 36.6189 125.158 37.2399C125.158 38.2561 124.707 39.0747 123.803 39.6957C122.9 40.2603 121.771 40.5425 120.416 40.5425C118.835 40.5425 117.565 40.1191 116.605 39.2723C115.645 38.4254 115.166 37.2116 115.166 35.6309C115.166 33.7114 115.899 31.9612 117.367 30.3805C118.892 28.7997 120.98 27.5577 123.634 26.6544C126.287 25.6946 129.223 25.2148 132.441 25.2148C133.627 25.2148 135.094 25.2994 136.845 25.4688C141.474 18.1295 146.357 12.1452 151.495 7.51581C156.689 2.82996 161.629 0.487042 166.315 0.487042C169.025 0.487042 171.255 0.882234 173.005 1.67262L159.709 64H147.515L154.035 33.2597C151.947 32.3 150.027 31.5943 148.277 31.1426C146.527 30.691 144.664 30.3805 142.688 30.2111C139.47 37.1552 136.816 44.2686 134.728 51.5515C132.695 58.7778 131.679 64.5646 131.679 68.9117C131.679 71.057 132.074 72.6378 132.864 73.654ZM159.709 6.49961C157.282 7.79809 154.741 10.2257 152.088 13.7824C149.491 17.2827 146.95 21.5451 144.466 26.5697C148.531 27.3601 151.975 28.3481 154.798 29.5336L159.709 6.49961ZM177.406 18.5247H189.6L188.245 24.876C191.068 22.4484 194.371 21.2346 198.153 21.2346C201.315 21.2346 203.827 22.279 205.69 24.3679C207.553 26.4568 208.485 29.8724 208.485 34.6147C208.485 39.0747 207.835 43.5912 206.537 48.1641C205.238 52.6806 203.037 56.5478 199.932 59.7658C196.826 62.9273 192.733 64.5081 187.652 64.5081C184.039 64.5081 181.64 63.4919 180.454 61.4595L176.051 82.1224L163.263 85.171L177.406 18.5247ZM185.027 57.1406C187.737 57.1406 189.967 55.8703 191.717 53.3298C193.524 50.7893 194.822 47.7689 195.613 44.2686C196.459 40.7119 196.883 37.4092 196.883 34.3606C196.883 29.6748 195.471 27.3319 192.649 27.3319C191.632 27.3319 190.588 27.6988 189.515 28.4327C188.499 29.1667 187.596 30.1829 186.806 31.4814L181.809 55.1929C182.261 56.4914 183.333 57.1406 185.027 57.1406ZM217.018 18.5247H229.213L227.858 24.876C230.681 22.4484 233.983 21.2346 237.766 21.2346C240.928 21.2346 243.44 22.279 245.303 24.3679C247.166 26.4568 248.097 29.8724 248.097 34.6147C248.097 39.0747 247.448 43.5912 246.15 48.1641C244.851 52.6806 242.649 56.5478 239.544 59.7658C236.439 62.9273 232.346 64.5081 227.265 64.5081C223.652 64.5081 221.253 63.4919 220.067 61.4595L215.664 82.1224L202.876 85.171L217.018 18.5247ZM224.64 57.1406C227.35 57.1406 229.58 55.8703 231.33 53.3298C233.137 50.7893 234.435 47.7689 235.226 44.2686C236.072 40.7119 236.496 37.4092 236.496 34.3606C236.496 29.6748 235.084 27.3319 232.262 27.3319C231.245 27.3319 230.201 27.6988 229.128 28.4327C228.112 29.1667 227.209 30.1829 226.418 31.4814L221.422 55.1929C221.874 56.4914 222.946 57.1406 224.64 57.1406Z" fill="white"/>
</g>
<defs>
<filter id="filter0_d" x="0.508118" y="0.48703" width="251.589" height="92.6839" filterUnits="userSpaceOnUse" color-interpolation-filters="sRGB">
<feFlood flood-opacity="0" result="BackgroundImageFix"/>
<feColorMatrix in="SourceAlpha" type="matrix" values="0 0 0 0 0 0 0 0 0 0 0 0 0 0 0 0 0 0 127 0"/>
<feOffset dy="4"/>
<feGaussianBlur stdDeviation="2"/>
<feColorMatrix type="matrix" values="0 0 0 0 0 0 0 0 0 0 0 0 0 0 0 0 0 0 0.25 0"/>
<feBlend mode="normal" in2="BackgroundImageFix" result="effect1_dropShadow"/>
<feBlend mode="normal" in="SourceGraphic" in2="effect1_dropShadow" result="shape"/>
</filter>
</defs>
</svg>
